Coordinates
version=1
nRows=21
nColumns=22
inDegrees=yes

Units are S.I. units (second, meters, Newtons, ...)
If the header above contains a line with 'inDegrees', this indicates whether rotational values are in degrees (yes) or radians (no).

endheader
time	pelvis_tilt	pelvis_list	pelvis_rotation	pelvis_tx	pelvis_ty	pelvis_tz	hip_flexion_r	hip_adduction_r	hip_rotation_r	knee_angle_r	ankle_angle_r	subtalar_angle_r	hip_flexion_l	hip_adduction_l	hip_rotation_l	knee_angle_l	ankle_angle_l	subtalar_angle_l	lumbar_extension	lumbar_bending	lumbar_rotation
      2.61000000	    -10.19497277	     -4.94840174	    -29.21063099	     -0.03002546	      0.97203465	      0.48229778	     15.91594242	     12.20768528	      0.23705842	    -24.20011464	     18.96527089	     -8.68958497	     38.73906673	    -11.46110232	     -3.54343520	    -50.75035118	     14.46899056	     -0.49197405	     -4.15523054	      9.87934525	     13.56963578
      2.62000000	    -10.21235954	     -5.19126888	    -29.12082337	     -0.02325505	      0.97181521	      0.48535385	     15.10723960	     12.38752552	      0.19319305	    -23.78898330	     19.30269325	     -8.61223979	     39.04761373	    -11.76106681	     -4.18700091	    -48.48588021	     14.37151294	     -0.41558801	     -4.37526581	     10.04991144	     13.96266592
      2.63000000	    -10.23531401	     -5.44576256	    -29.01615186	     -0.01638207	      0.97149670	      0.48835080	     14.29576606	     12.57844762	      0.15552733	    -23.37701869	     19.62140843	     -8.56614292	     39.30772351	    -12.05946139	     -4.89659083	    -46.19061712	     14.25235036	     -0.25010677	     -4.58601081	     10.23346155	     14.32519977
      2.64000000	    -10.25731432	     -5.71216503	    -28.88762382	     -0.00939294	      0.97109026	      0.49129425	     13.47442764	     12.77465793	      0.10402491	    -22.95993768	     19.91719821	     -8.54656175	     39.51792133	    -12.34721805	     -5.66763790	    -43.87984950	     14.15023166	      0.02049805	     -4.79197454	     10.42364395	     14.62800426
      2.65000000	    -10.29619578	     -5.98560001	    -28.74104299	     -0.00229460	      0.97056536	      0.49418627	     12.66818233	     12.98179741	      0.03531477	    -22.54952854	     20.20555648	     -8.55365843	     39.70683339	    -12.62534729	     -6.48847755	    -41.57730689	     14.07177875	      0.37587057	     -4.97080347	     10.62384521	     14.90426033
      2.66000000	    -10.35640863	     -6.25259802	    -28.59006942	      0.00490265	      0.96991484	      0.49702801	     11.88498756	     13.19479104	     -0.00627888	    -22.14244526	     20.50876440	     -8.57075394	     39.88531137	    -12.88865958	     -7.36428466	    -39.30261192	     14.01879633	      0.75667098	     -5.11349439	     10.82725752	     15.17904214
      2.67000000	    -10.40986576	     -6.53265577	    -28.39458177	      0.01227242	      0.96918862	      0.49979958	     11.08215405	     13.40625530	     -0.09375888	    -21.72585071	     20.80958574	     -8.57934754	     40.03003908	    -13.12204027	     -8.27910044	    -37.07574954	     14.03473720	      1.21038410	     -5.24499039	     11.04066603	     15.36073476
      2.68000000	    -10.48336455	     -6.80790821	    -28.17520821	      0.01978554	      0.96833750	      0.50252800	     10.29444536	     13.62146624	     -0.18475635	    -21.30502734	     21.12946165	     -8.57138109	     40.17724154	    -13.32739675	     -9.21912123	    -34.91988815	     14.10375652	      1.65526744	     -5.32891481	     11.25471565	     15.49952272
      2.69000000	    -10.53749534	     -7.10513591	    -27.91110727	      0.02747942	      0.96743364	      0.50518944	      9.47512363	     13.83808382	     -0.34084637	    -20.88111378	     21.43186279	     -8.52996579	     40.29443511	    -13.51310218	    -10.20199517	    -32.87691271	     14.20399623	      2.14874843	     -5.41928341	     11.48227521	     15.55897468
      2.70000000	    -10.60015829	     -7.38102575	    -27.63559401	      0.03532753	      0.96641355	      0.50783227	      8.66645903	     14.04439604	     -0.46142607	    -20.45725837	     21.77771295	     -8.47610581	     40.40822201	    -13.65883989	    -11.19672812	    -30.94426934	     14.37620372	      2.53220647	     -5.46206718	     11.68583274	     15.60583181
      2.71000000	    -10.63773195	     -7.67016725	    -27.31953921	      0.04337772	      0.96534713	      0.51043504	      7.81903257	     14.24857513	     -0.61924587	    -20.02638328	     22.10867172	     -8.39259738	     40.49507440	    -13.77940424	    -12.21359630	    -29.17032766	     14.57458284	      2.87752516	     -5.50595752	     11.88694837	     15.58347489
      2.72000000	    -10.66001334	     -7.95552684	    -26.98328957	      0.05160357	      0.96420891	      0.51303383	      6.95837536	     14.44568821	     -0.78440464	    -19.60754836	     22.43911354	     -8.28979732	     40.57058321	    -13.87933863	    -13.24794415	    -27.57977893	     14.80401922	      3.13846504	     -5.53291817	     12.06885001	     15.52378081
      2.73000000	    -10.66388349	     -8.23230395	    -26.63245112	      0.06000928	      0.96300423	      0.51560409	      6.08888517	     14.62925105	     -0.94380432	    -19.21186100	     22.77216979	     -8.17335124	     40.63246119	    -13.95413531	    -14.28064776	    -26.18956717	     15.07596589	      3.30215217	     -5.54821456	     12.23107040	     15.43574815
      2.74000000	    -10.64457715	     -8.50010990	    -26.27558830	      0.06857291	      0.96175401	      0.51817883	      5.21286236	     14.79804270	     -1.10908097	    -18.85126990	     23.09131172	     -8.03474054	     40.67837360	    -14.01337518	    -15.29309200	    -25.02487366	     15.34942700	      3.37788813	     -5.56273323	     12.36465256	     15.34528488
      2.75000000	    -10.59461028	     -8.75598427	    -25.91870149	      0.07729125	      0.96048278	      0.52075859	      4.33072605	     14.94572885	     -1.26549197	    -18.54111004	     23.39256005	     -7.85284062	     40.69738989	    -14.05823274	    -16.27520463	    -24.09515404	     15.60134672	      3.37164245	     -5.58344872	     12.46496655	     15.23118314
      2.76000000	    -10.55143048	     -8.98373171	    -25.57768539	      0.08614551	      0.95912552	      0.52335081	      3.49539435	     15.07173475	     -1.41826158	    -18.30062960	     23.69940965	     -7.65399581	     40.73123812	    -14.09155345	    -17.16532149	    -23.41196119	     15.87060199	      3.28683990	     -5.56501135	     12.53461043	     15.13938587
      2.77000000	    -10.51214192	     -9.18414739	    -25.26026855	      0.09511364	      0.95770995	      0.52594714	      2.70998204	     15.17223696	     -1.56660238	    -18.14118436	     23.99954576	     -7.42897275	     40.77221848	    -14.11738637	    -17.93979189	    -22.97763394	     16.11123406	      3.14451727	     -5.52076658	     12.57430230	     15.07607438
      2.78000000	    -10.48072517	     -9.35384165	    -24.96554229	      0.10416835	      0.95625405	      0.52854611	      1.98527125	     15.24479334	     -1.70269436	    -18.06920211	     24.27713060	     -7.15168809	     40.82003039	    -14.13380222	    -18.57620486	    -22.78150334	     16.26589336	      2.94349655	     -5.44946852	     12.57949013	     15.02549135
      2.79000000	    -10.46996667	     -9.48490019	    -24.69862905	      0.11332497	      0.95475118	      0.53112752	      1.34046653	     15.28202283	     -1.82534510	    -18.09339930	     24.54176884	     -6.83171477	     40.88498136	    -14.13636070	    -19.04584132	    -22.81705189	     16.32853628	      2.68028633	     -5.33247476	     12.55508667	     15.00823985
      2.80000000	    -10.48494360	     -9.57381820	    -24.45338568	      0.12257352	      0.95321120	      0.53368122	      0.78446557	     15.28190133	     -1.93643945	    -18.21707732	     24.80636216	     -6.48838391	     40.97218968	    -14.11737331	    -19.33445677	    -23.06597500	     16.26399511	      2.35329382	     -5.16623112	     12.49648003	     15.01912185
      2.81000000	    -10.51718613	     -9.60789609	    -24.21873591	      0.13191920	      0.95168468	      0.53617804	      0.31658811	     15.22823176	     -2.02043463	    -18.43809579	     25.00887741	     -6.07040606	     41.07410091	    -14.05689949	    -19.46294358	    -23.50329340	     15.99431506	      1.91946595	     -4.95259817	     12.39063169	     15.02417922
